<svg width="20.000000" height="19.000000" viewBox="0 0 20 19" fill="none" xmlns="http://www.w3.org/2000/svg" xmlns:xlink="http://www.w3.org/1999/xlink">
	<desc>
			Created with Pixso.
	</desc>
	<defs/>
	<path id="Vector" d="M14.188 0C17.3977 0 20 2.66113 20 5.94373L20 13.0563C20 16.3389 17.3977 19 14.188 19L5.81201 19C2.60229 19 0 16.3389 0 13.0563L0 5.94373C0 2.66113 2.60229 0 5.81201 0L14.188 0ZM14.188 1.48657L5.81201 1.48657C3.40503 1.48657 1.45361 3.48218 1.45361 5.94373L1.45361 13.0563C1.45361 15.5178 3.40503 17.5134 5.81201 17.5134L14.188 17.5134C16.595 17.5134 18.5464 15.5178 18.5464 13.0563L18.5459 12.7791L15.3499 12.7798C13.5083 12.7787 12.0159 11.2531 12.0146 9.36951C12.0146 7.54919 13.4102 6.0625 15.1672 5.96436L15.3503 5.95911L18.5459 5.95898L18.5464 5.94373C18.5464 3.55457 16.708 1.60425 14.3992 1.4917L14.188 1.48657ZM18.5459 7.44495L15.3508 7.44568C14.311 7.44629 13.4683 8.30737 13.4683 9.36902C13.469 10.3811 14.2329 11.2102 15.2034 11.2875L15.3503 11.2933L18.5459 11.293L18.5459 7.44495ZM15.7942 8.56519C16.1956 8.56519 16.521 8.89795 16.521 9.30847C16.521 9.68469 16.2476 9.99573 15.8928 10.0449L15.7942 10.0516L15.4922 10.0516C15.0908 10.0516 14.7654 9.71887 14.7654 9.30847C14.7654 8.93213 15.0388 8.62122 15.3936 8.57202L15.4922 8.56519L15.7942 8.56519ZM10.354 4.49731C10.7554 4.49731 11.0806 4.83008 11.0806 5.2406C11.0806 5.61694 10.8071 5.92786 10.4524 5.97705L10.354 5.98389L5.12207 5.98389C4.7207 5.98389 4.39526 5.65112 4.39526 5.2406C4.39526 4.86438 4.6687 4.55334 5.02344 4.50415L5.12207 4.49731L10.354 4.49731Z" fill="#ABBBC2" fill-opacity="1.000000" fill-rule="nonzero"/>
</svg>
